<svg width="110" height="32" viewBox="0 0 110 32" fill="none" xmlns="http://www.w3.org/2000/svg">
<path d="M43.2626 6.44836V11.4861H30.5707V6.44836H43.2626ZM33.0288 1.8136H39.9517V19.5718C39.9517 19.8405 39.9976 20.0672 40.0896 20.2519C40.1816 20.4282 40.3237 20.5625 40.516 20.6549C40.7083 20.7389 40.955 20.7809 41.256 20.7809C41.465 20.7809 41.7074 20.7557 41.9833 20.7053C42.2676 20.6549 42.4766 20.6129 42.6104 20.5793L43.6137 25.466C43.3044 25.5583 42.8612 25.6717 42.2843 25.806C41.7158 25.9404 41.0386 26.0285 40.2526 26.0705C38.6641 26.1545 37.3305 25.9908 36.252 25.5793C35.1734 25.1595 34.3624 24.5004 33.8189 23.602C33.2755 22.7036 33.0121 21.5785 33.0288 20.2267V1.8136Z" fill="#4EA8DE"/>
<path d="M55.1612 26.1461C53.0709 26.1461 51.2817 25.7305 49.7935 24.8992C48.3052 24.0596 47.164 22.8925 46.3697 21.398C45.5754 19.895 45.1783 18.1528 45.1783 16.1713C45.1783 14.1898 45.5754 12.4517 46.3697 10.9572C47.164 9.45424 48.3052 8.28715 49.7935 7.45591C51.2817 6.61629 53.0709 6.19647 55.1612 6.19647C57.2514 6.19647 59.0406 6.61629 60.5288 7.45591C62.0171 8.28715 63.1583 9.45424 63.9526 10.9572C64.7469 12.4517 65.1441 14.1898 65.1441 16.1713C65.1441 18.1528 64.7469 19.895 63.9526 21.398C63.1583 22.8925 62.0171 24.0596 60.5288 24.8992C59.0406 25.7305 57.2514 26.1461 55.1612 26.1461ZM55.2113 21.0076C55.7966 21.0076 56.3024 20.8102 56.7288 20.4156C57.1552 20.021 57.4855 19.4584 57.7196 18.728C57.9537 17.9975 58.0707 17.1285 58.0707 16.1209C58.0707 15.1049 57.9537 14.2359 57.7196 13.5139C57.4855 12.7834 57.1552 12.2208 56.7288 11.8262C56.3024 11.4316 55.7966 11.2343 55.2113 11.2343C54.5926 11.2343 54.0617 11.4316 53.6186 11.8262C53.1754 12.2208 52.8368 12.7834 52.6027 13.5139C52.3686 14.2359 52.2516 15.1049 52.2516 16.1209C52.2516 17.1285 52.3686 17.9975 52.6027 18.728C52.8368 19.4584 53.1754 20.021 53.6186 20.4156C54.0617 20.8102 54.5926 21.0076 55.2113 21.0076Z" fill="#4EA8DE"/>
<path d="M74.947 26.0453C73.5758 26.0453 72.3133 25.6843 71.1595 24.9622C70.014 24.2401 69.0944 23.1444 68.4004 21.6751C67.7148 20.2057 67.372 18.3543 67.372 16.1209C67.372 13.7867 67.7315 11.8892 68.4506 10.4282C69.178 8.96725 70.1144 7.89672 71.2598 7.21662C72.4136 6.53652 73.626 6.19647 74.8968 6.19647C75.8499 6.19647 76.686 6.3644 77.4051 6.70025C78.1241 7.02771 78.7261 7.46851 79.211 8.02267C79.696 8.56843 80.0638 9.16877 80.3147 9.82368H80.415V0H87.3378V25.7934H80.4652V22.6196H80.3147C80.0471 23.2746 79.6625 23.8623 79.1609 24.3829C78.6676 24.895 78.0656 25.3023 77.3549 25.6045C76.6526 25.8984 75.8499 26.0453 74.947 26.0453ZM77.5054 20.7053C78.1408 20.7053 78.6843 20.5206 79.1358 20.1511C79.5956 19.7733 79.9468 19.2443 80.1892 18.5642C80.4401 17.8757 80.5655 17.0613 80.5655 16.1209C80.5655 15.1637 80.4401 14.3451 80.1892 13.665C79.9468 12.9765 79.5956 12.4517 79.1358 12.0907C78.6843 11.7212 78.1408 11.5365 77.5054 11.5365C76.87 11.5365 76.3265 11.7212 75.875 12.0907C75.4319 12.4517 75.0891 12.9765 74.8466 13.665C74.6125 14.3451 74.4955 15.1637 74.4955 16.1209C74.4955 17.0781 74.6125 17.9009 74.8466 18.5894C75.0891 19.2695 75.4319 19.7943 75.875 20.1637C76.3265 20.5248 76.87 20.7053 77.5054 20.7053Z" fill="#5E60CE"/>
<path d="M100.017 26.1461C97.9269 26.1461 96.1376 25.7305 94.6494 24.8992C93.1612 24.0596 92.0199 22.8925 91.2256 21.398C90.4313 19.895 90.0342 18.1528 90.0342 16.1713C90.0342 14.1898 90.4313 12.4517 91.2256 10.9572C92.0199 9.45424 93.1612 8.28715 94.6494 7.45592C96.1376 6.61629 97.9269 6.19647 100.017 6.19647C102.107 6.19647 103.897 6.61629 105.385 7.45592C106.873 8.28715 108.014 9.45424 108.809 10.9572C109.603 12.4517 110 14.1898 110 16.1713C110 18.1528 109.603 19.895 108.809 21.398C108.014 22.8925 106.873 24.0596 105.385 24.8992C103.897 25.7305 102.107 26.1461 100.017 26.1461ZM100.067 21.0076C100.653 21.0076 101.158 20.8102 101.585 20.4156C102.011 20.021 102.341 19.4584 102.576 18.728C102.81 17.9975 102.927 17.1285 102.927 16.1209C102.927 15.105 102.81 14.2359 102.576 13.5139C102.341 12.7834 102.011 12.2208 101.585 11.8262C101.158 11.4316 100.653 11.2343 100.067 11.2343C99.4486 11.2343 98.9176 11.4316 98.4745 11.8262C98.0314 12.2208 97.6928 12.7834 97.4587 13.5139C97.2246 14.2359 97.1075 15.105 97.1075 16.1209C97.1075 17.1285 97.2246 17.9975 97.4587 18.728C97.6928 19.4584 98.0314 20.021 98.4745 20.4156C98.9176 20.8102 99.4486 21.0076 100.067 21.0076Z" fill="#5E60CE"/>
</svg>
