<svg width="4" height="9" viewBox="0 0 4 9" fill="none" xmlns="http://www.w3.org/2000/svg">
<path d="M2.0831 8.12926C1.75497 8.12926 1.47325 8.01326 1.23793 7.78125C1.00592 7.54593 0.889915 7.2642 0.889915 6.93608C0.889915 6.61127 1.00592 6.33286 1.23793 6.10085C1.47325 5.86884 1.75497 5.75284 2.0831 5.75284C2.40128 5.75284 2.67969 5.86884 2.91832 6.10085C3.15696 6.33286 3.27628 6.61127 3.27628 6.93608C3.27628 7.15483 3.21993 7.35535 3.10724 7.53764C2.99787 7.71662 2.85369 7.8608 2.67472 7.97017C2.49574 8.07623 2.29853 8.12926 2.0831 8.12926ZM2.0831 2.77983C1.75497 2.77983 1.47325 2.66383 1.23793 2.43182C1.00592 2.19981 0.889915 1.91809 0.889915 1.58665C0.889915 1.26184 1.00592 0.985085 1.23793 0.756392C1.47325 0.524384 1.75497 0.40838 2.0831 0.40838C2.40128 0.40838 2.67969 0.524384 2.91832 0.756392C3.15696 0.985085 3.27628 1.26184 3.27628 1.58665C3.27628 1.80871 3.21993 2.01089 3.10724 2.19318C2.99787 2.37216 2.85369 2.51468 2.67472 2.62074C2.49574 2.7268 2.29853 2.77983 2.0831 2.77983Z" fill="#8284FA"/>
</svg>
